<svg width="129" height="134" viewBox="0 0 129 134" fill="none" xmlns="http://www.w3.org/2000/svg">
<path d="M104.428 105.312C108.462 98.2659 110.768 90.1056 110.768 81.4084C110.768 78.5332 110.516 75.7179 110.033 72.9824C108.079 83.8326 102.304 93.359 94.1466 100.115C89.4266 104.025 82.4007 103.232 78.7072 98.3426L71.8138 89.2191C70.6673 87.7008 68.8733 86.809 66.9698 86.809H40.7039C40.6982 86.809 40.6926 86.8102 40.6869 86.8102C38.8942 86.8223 37.7327 88.7104 38.5385 90.3147L39.584 92.3938C41.5275 96.2612 45.3539 98.8315 49.6722 99.1714L51.2285 99.2933L58.0399 99.8299C59.968 99.9816 61.7063 101.047 62.7154 102.695L65.8046 107.742L67.5344 110.568L77.2236 126.399C77.3962 126.682 77.6124 126.929 77.8589 127.135C78.5686 127.728 79.5309 127.975 80.464 127.745C80.4713 127.743 80.4774 127.741 80.4846 127.74C105.618 121.544 124.98 100.718 129 74.8249C125.471 88.1081 116.41 99.1424 104.428 105.312Z" fill="white"/>
<path d="M60.862 103.827C60.2182 102.775 59.0995 102.09 57.8693 101.993L49.5016 101.334C44.4571 100.938 39.913 97.8857 37.6425 93.3684L36.6524 91.3987C35.9483 89.9983 35.9322 88.323 36.7089 86.9609C37.5111 85.5556 38.9564 84.6917 40.56 84.642L40.7039 84.6388H49.1136C46.3715 80.316 41.4313 77.8842 36.3173 78.3617L27.579 79.1768C23.8359 79.5264 20.4722 76.9488 19.7831 73.2574C19.2723 70.5216 19.0052 67.6993 19.0052 64.8149C19.0052 50.1906 25.8618 37.1665 36.5388 28.7749C25.9612 35.7322 17.7289 45.9574 13.2874 58.0146C17.2892 28.9703 42.2303 6.59783 72.4066 6.59783C91.086 6.59783 107.759 15.1715 118.703 28.592C107.073 11.3869 87.3925 0.0583539 65.0586 0.000221594C29.3091 -0.0926286 0.0534189 29.0054 7.22755e-05 64.7168C-0.0185181 77.2879 3.55004 89.0238 9.73419 98.9668C9.86473 99.1767 9.99325 99.3875 10.1262 99.5962L18.7873 98.1295C22.6562 97.4756 25.8408 101.211 24.5253 104.905C24.4889 105.007 24.4659 105.062 24.4659 105.062C30.0418 107.088 29.1006 112.513 29.1006 112.513C34.025 114.756 31.9975 119.386 31.9975 119.386C33.7389 120.105 34.3488 121.511 34.5064 121.971C34.5872 122.205 34.6761 122.437 34.7662 122.669L38.1343 131.302C38.7135 132.786 40.4917 134 42.0864 134C44.099 134 45.4917 131.991 44.7841 130.109L43.2075 125.918L41.1052 120.328C40.9585 119.938 41.2252 119.51 41.6508 119.479C41.9288 119.458 42.1834 119.64 42.2901 119.898L45.0528 126.542L47.0978 131.46C47.8018 133.153 49.6608 134.124 51.4229 133.61C53.5341 132.994 54.5853 130.633 53.6311 128.655C53.6303 128.654 53.6295 128.652 53.6287 128.65L48.57 118.211C48.353 117.763 48.6493 117.237 49.1451 117.189C49.4321 117.161 49.7077 117.309 49.8439 117.562L56.0006 129.022L56.7636 130.443C57.5161 131.844 59.1646 132.574 60.6757 132.075C61.8509 131.686 62.6333 130.705 62.841 129.594C62.9671 128.917 62.8806 128.193 62.5359 127.527L57.7182 118.2C57.5064 117.789 57.662 117.263 58.0896 117.086C58.4678 116.929 58.8914 117.091 59.0773 117.44L64.5219 127.714C64.9616 128.544 65.6175 129.187 66.3841 129.612C67.6596 130.319 69.2426 130.419 70.6547 129.754C70.9271 129.626 71.1764 129.471 71.41 129.302C73.3406 127.902 73.946 125.206 72.6515 123.09L60.862 103.827Z" fill="white"/>
<path d="M13.7927 107.723L20.6053 106.593C22.6494 106.254 24.032 104.325 23.6929 102.283C23.3538 100.24 21.4212 98.8589 19.3767 99.1976L12.5641 100.327C10.5195 100.665 9.13738 102.596 9.47645 104.638C9.81552 106.68 11.7481 108.061 13.7927 107.723Z" fill="white"/>
<path d="M27.1688 109.66C26.8297 107.618 24.8971 106.237 22.8525 106.577L13.5537 108.352C11.5091 108.691 10.1266 110.62 10.4661 112.663C10.8051 114.705 12.7373 116.086 14.7819 115.747L24.0811 113.972C26.1257 113.633 27.5078 111.702 27.1688 109.66Z" fill="white"/>
<path d="M30.3069 117.378C29.9674 115.335 28.0356 113.954 25.9911 114.293L19.1781 115.422C17.1335 115.761 15.7514 117.691 16.0905 119.734C16.4295 121.776 18.3621 123.156 20.4063 122.817L27.2189 121.689C29.2634 121.35 30.646 119.42 30.3069 117.378Z" fill="white"/>
<path d="M30.7225 121.527L25.1276 122.417C23.083 122.754 21.7009 124.685 22.0399 126.727C22.379 128.769 24.3116 130.15 26.3557 129.812L31.9507 128.922C33.9952 128.583 35.3774 126.653 35.0383 124.611C34.6992 122.568 32.7666 121.188 30.7225 121.527Z" fill="white"/>
</svg>
